<?xml version="1.0" encoding="utf-8"?>
<!-- Generator: Adobe Illustrator 27.5.0, SVG Export Plug-In . SVG Version: 6.00 Build 0)  -->
<svg version="1.1" id="レイヤー_1" xmlns="http://www.w3.org/2000/svg" xmlns:xlink="http://www.w3.org/1999/xlink" x="0px"
	 y="0px" viewBox="0 0 595.28 841.89" style="enable-background:new 0 0 595.28 841.89;" xml:space="preserve">
<style type="text/css">
	.st0{fill:#1D50A2;}
	.st1{fill:#00B9EF;}
</style>
<g>
	<path class="st0" d="M430.17,178.39c-41.12,0-80.04,19.94-104.11,53.36c0.04-0.05-14.74,19.37-21.37,28.06
		c-15.93-24.63-43.22-39.85-72.74-39.85c-29.13,0-56.2,14.5-72.34,38.86c-0.07-0.26-108.39,141.89-108.39,141.89
		c-1.23,1.59-0.93,3.86,0.61,5.1c1.58,1.27,3.86,1.01,5.16-0.52c15.17-18.22,37.44-28.69,61.09-28.69
		c32.81,0,61.83,19.66,73.88,50.07c0.64,1.47,2.08,2.42,3.7,2.33c1.59-0.1,2.95-1.23,3.32-2.76c13.62-53.7,61.86-91.19,117.32-91.19
		c66.71,0,120.98,54.28,120.98,121c0,25.78-7.98,50.37-23.03,71.09c-1.19,1.63-0.85,3.91,0.75,5.12c1.62,1.2,3.91,0.88,5.13-0.71
		l111.01-145.37c17.88-22.87,27.44-50.32,27.44-79.43C558.56,235.98,500.96,178.39,430.17,178.39z"/>
	<g>
		<path class="st1" d="M66.45,455.7c-9.52,2.59-15.68,11.26-15.68,22.12v71.57h24.65c0,0,0-45.14,0-60.76
			c7.43,14.13,26.24,49.75,26.24,49.75l0.13,0.23c5.22,8.87,15.55,13.25,25.07,10.66c9.56-2.58,15.68-11.25,15.68-22.13v-71.56
			h-24.67c0,0,0,45.14,0,60.75c-7.43-14.13-26.24-49.73-26.24-49.73l-0.12-0.26C86.3,457.48,75.99,453.1,66.45,455.7z"/>
		<path class="st1" d="M299.9,473.8c-1.63-10.83-9-18.55-18.75-19.61c-9.66-1.04-18.98,4.87-22.62,14.41
			c-0.06,0.22-0.11,0.43-0.22,0.63c0,0-4.65,14.5-9.13,28.55c-4.5-14.05-9.14-28.55-9.14-28.55c-0.06-0.2-0.13-0.41-0.23-0.63
			c-3.61-9.54-12.92-15.45-22.58-14.41c-9.78,1.07-17.13,8.79-18.78,19.61l-11.24,75.59h24.91c3.07-20.47,7.09-47.64,8.78-59.03
			c5.47,17.03,16.54,51.6,16.54,51.6c1.63,5.1,6.38,8.57,11.74,8.57c5.33,0,10.1-3.46,11.71-8.57c0,0,11.07-34.57,16.54-51.6
			c2.25,14.96,5.98,40.06,8.79,59.03h24.92L299.9,473.8z"/>
		<rect x="154.19" y="455.77" class="st1" width="24.62" height="93.7"/>
		<path class="st1" d="M341.71,455.43c-17.02,0-26.56,10.61-28.45,21.13c-0.3,1.53-0.42,3.05-0.42,4.57
			c0,10.66,6.85,20.35,17.81,24.46c0.03,0,45.57,17.01,45.57,17.01c1.54,0.57,2.12,1.19,1.68,2.11c-0.36,0.8-1.21,0.96-4.08,0.96
			H316.6v24.05h57.22c16.99,0,26.57-10.62,28.47-21.13c0.3-1.52,0.44-3.05,0.44-4.55c0-10.68-6.86-20.35-17.83-24.47
			c-0.03-0.02-45.59-17-45.59-17c-1.54-0.58-1.76-1.5-1.55-2.19c0.33-1.03,1.11-1.41,3.96-1.41h55.61v-23.53H341.71z"/>
	</g>
</g>
</svg>
